PathFileType	4	(X/Y/Z)	Patient4_TMGait_0pt3_01_right_14.trc.trc
DataRate	CameraRate	NumFrames	NumMarkers	Units	OrigDataRate	OrigDataStartFrame	OrigNumFrames
53.231939163498	53.231939163498	6	33	mm	53.231939163498	53	       141
Frame#	Time	Sacral			L.Shoulder			Chest			R.Shoulder			Neck			R.ASIS			L.ASIS			R.Thigh.Superior			R.Thigh.Lateral			R.Thigh.Inferior			R.Patella			L.Thigh.Superior			L.Thigh.Lateral			L.Thigh.Inferior			L.Patella			L.Shank.Superior			L.Shank.Lateral			L.Shank.Inferior			R.Shank.Superior			R.Shank.Lateral			R.Shank.Inferior			R.Heel			R.Midfoot.Superior			R.Midfoot.Lateral			R.Toe			L.Heel			L.Midfoot.Lateral			L.Midfoot.Superior			L.Toe			L.Elbow			L.Wrist			R.Elbow			R.Wrist			
		X1	Y1	Z1	X2	Y2	Z2	X3	Y3	Z3	X4	Y4	Z4	X5	Y5	Z5	X6	Y6	Z6	X7	Y7	Z7	X8	Y8	Z8	X9	Y9	Z9	X10	Y10	Z10	X11	Y11	Z11	X12	Y12	Z12	X13	Y13	Z13	X14	Y14	Z14	X15	Y15	Z15	X16	Y16	Z16	X17	Y17	Z17	X18	Y18	Z18	X19	Y19	Z19	X20	Y20	Z20	X21	Y21	Z21	X22	Y22	Z22	X23	Y23	Z23	X24	Y24	Z24	X25	Y25	Z25	X26	Y26	Z26	X27	Y27	Z27	X28	Y28	Z28	X29	Y29	Z29	X30	Y30	Z30	X31	Y31	Z31	X32	Y32	Z32	X33	Y33	Z33	

53	26.006857142857	761.865426582038	990.095413603139	578.285422545033	943.077629767619	1417.222118951844	389.234166892070	1031.985273811813	1357.973551264817	561.959310657697	930.744804997594	1436.034469252513	724.147226261478	917.173920060939	1485.990362473983	544.008986878360	989.638549340820	939.540371229618	707.369987176048	985.051944717065	949.434837509895	432.132508568337	1037.521128011123	736.663616870942	672.235248283760	956.176063282029	621.208507116855	721.978824766492	1037.075124378531	573.374994700190	643.326370658846	1036.747688270791	479.258905767492	645.895293353447	1063.156695973376	757.842554983837	464.408427723385	1016.095143246551	634.390146919691	381.823368311303	1112.019206788289	565.832522652267	450.512709988011	1118.052511814643	474.840249414111	439.758574947813	1043.226545409392	416.071010103032	424.183306968893	897.909368006831	395.738137026331	371.318056668496	867.687639959956	264.525895341247	413.788999425674	994.447976754344	392.244341301755	646.762716558000	907.726895186996	296.918097554138	701.267795455112	938.174644899700	199.870380444348	636.045648792004	785.464455571144	45.444057301130	595.423395900717	955.073670902336	97.283840438216	645.518791297392	862.316460911364	38.053295652812	676.706409836346	1070.819724935343	41.132795266709	684.658258795652	675.154683157174	244.798425591099	450.619702613441	712.554077022658	183.198425951401	368.606267400890	816.188598245528	155.459818815243	385.785776125791	853.427222379659	28.280516459508	355.263614911006	951.036849432920	1058.100926148549	288.195596433356	1086.018308421741	836.237324738796	304.815883528458	921.643751920647	1106.218313233590	880.757568997012	1159.097774004011	1015.961680892473	904.775651334781	
54	26.025642857143	760.632969273120	988.719683376374	581.006472057392	938.961757525932	1415.579043210596	389.292571534522	1030.449345581636	1356.926924608088	560.856049409513	931.638497632205	1435.319479104393	724.432613187392	915.557588496525	1484.855589410372	544.296878949480	989.883952838461	938.504925316790	707.641270860888	982.231443438238	948.703726885965	432.484170211598	1037.533741985290	735.532761840491	672.121180873448	956.580110549186	619.937877653163	722.177213587374	1037.026900187730	572.175499899627	642.966597865600	1036.620537108562	477.575659771052	645.415935201497	1064.627507895077	760.939981365234	465.141026822760	1020.799565585231	636.351643631462	382.529721549215	1118.867944766211	570.317918018293	450.941542405110	1126.977732552578	479.030276771314	440.070460129645	1052.593711222368	419.042125457257	424.750622026281	906.474280878121	397.625176734612	373.902280444467	878.635013894501	265.662554836640	415.619217016202	993.028241987713	390.761700472995	646.430623453252	905.409997842050	296.390942584959	701.249515727712	934.291875389271	199.042076959911	635.861795464018	779.855683750956	45.578466678766	595.524026722915	949.541217565681	97.169109325226	645.475619412418	856.739776167132	38.089327784258	676.787527222301	1065.238424684639	40.934582478611	684.785422569710	686.710026365579	241.473670232749	454.913700666616	724.537886761118	182.862366684859	371.166586221894	828.788292173037	157.670547885935	386.989288524710	868.365025984691	30.016039025610	352.792634958693	937.306817481942	1055.369876005633	291.330312849924	1052.876924299769	822.380741318710	306.444243470327	936.001639610180	1106.211809618102	882.307395123399	1179.439087332120	1033.544898100425	900.728093364096	
55	26.044428571429	759.473765165346	987.786622514362	583.375972505313	934.971683143965	1414.360714834286	389.262590894564	1029.050564257124	1356.183898053477	559.563365812422	932.770979101527	1434.904592016857	724.534591905750	914.086389239844	1484.053591683859	544.469396943457	990.083335542827	937.667810508219	707.559886407322	979.396472843991	948.342123914497	432.508143502960	1037.130921099464	734.479936822907	671.655157542873	956.357526451872	618.921187710349	722.092952911546	1036.243194178424	571.076281081789	642.348651855683	1035.616325711870	476.120691228007	644.708693191096	1065.362257796875	763.999608087946	465.388412387030	1024.188467580671	638.432449403963	382.886684163227	1124.164675517552	574.695608561362	450.899472258924	1134.274376775680	483.399172281426	439.945812804015	1060.927198421403	422.026637989051	424.910212932964	914.523333770438	397.878220593693	375.993473944857	890.529512552837	265.099071393310	417.080844561499	990.942461384707	389.523288680829	645.972556800620	902.571006071038	295.989233142913	701.106714394003	930.131225274467	198.349814070092	635.642790824088	774.247440709247	45.716840565918	595.609317428309	943.994209619543	97.061370356598	645.424511267468	851.158151850548	38.134021314837	676.864442122642	1059.642408746920	40.756972969071	684.908320770997	699.708807147442	233.393071683187	458.658036428900	738.944631193811	178.827803089593	373.215643271860	843.838430881092	158.217149645472	387.846935155852	888.130970059141	32.147428741724	349.992191337223	923.044044595725	1053.578429185031	294.090819798783	1019.442507173446	811.693198319172	308.268050233716	950.812831084723	1106.913582717085	883.146831424637	1198.824811786288	1051.983379612601	895.355220126781	
56	26.063214285714	758.398736180281	987.353145677335	585.426664547258	931.130008893774	1413.615130670386	389.131863036804	1027.818685262862	1355.782470459700	558.059205487173	934.191860777982	1434.837980842460	724.425102398643	912.794258152804	1483.625874387732	544.509126203535	990.237234060375	937.053651252265	707.114481454018	976.562254476010	948.397905704266	432.187060829282	1036.258365763229	733.528598494455	670.819317970366	955.447515638228	618.202575912080	721.748498944820	1034.626266055405	570.104725036839	641.481639220795	1033.619165449848	474.935581411896	643.799730075695	1065.337539401273	766.958266855354	465.201560917068	1026.267127943300	640.572088000731	382.898377351260	1127.820299620876	578.831040996930	450.480900134456	1139.855573369207	487.847186618688	439.454780947703	1068.197243232459	424.949222526264	424.677968746354	922.234871399375	396.387137340896	377.393715965933	903.521669415243	262.845771191779	418.027997093628	988.103474451218	388.567338909955	645.415749090390	899.141531851036	295.724713702291	700.862757831970	925.651162329497	197.812242317689	635.400685899536	768.634922597013	45.848231713615	595.685506571788	938.425248679614	96.967293503274	645.371109244524	845.563986089879	38.181696983763	676.939335243922	1054.026458357472	40.608751368695	685.021687766565	714.533347010526	220.918703012861	461.465510208406	756.037036250285	171.261378241686	374.511487617922	861.422294987987	157.017520542682	388.257265270401	912.485813292938	34.508966950262	347.047480864089	908.316394685568	1052.833656129240	296.438402820050	986.278951591474	804.156056906602	310.257168255790	965.958235471642	1108.423357416642	883.280099721673	1217.086327598002	1071.159662519098	888.725090089009	
57	26.082000000000	757.411185143437	987.439345113538	587.187798519685	927.450956678504	1413.355913180819	388.882260183206	1026.773474255524	1355.730939250026	556.318591937681	935.935470276629	1435.136073159342	724.071091394728	911.705401934160	1483.583389040606	544.393469002043	990.344627465569	936.664725086146	706.298374834774	973.741494735509	948.883300980668	431.513533035141	1034.884764315158	732.689763371668	669.610786855227	953.825298115985	617.803594128902	721.174735931977	1032.121880566485	569.276600001056	640.383918677677	1030.567281632725	474.044761028501	642.724033949555	1064.549511325329	769.740821124194	464.644099719660	1027.080096833798	642.703144444133	382.569833379812	1129.790662276081	582.592449097171	449.783859271628	1143.681460708734	492.265958418815	438.678935963975	1074.382257723226	427.749437088983	424.088720280529	929.784839178981	393.176726837615	377.939582435743	917.667732712951	259.066272751038	418.353454314356	984.465697262340	387.911198602796	644.787969195756	895.086095360110	295.598596491489	700.543743857803	920.827197504695	197.437821269855	635.148643986996	763.013446852355	45.960292007753	595.760481111127	932.825760712843	96.887811784536	645.315884655668	839.950410991398	38.225781619544	677.014392593910	1048.386656812051	40.497195599428	685.120863452752	731.465188023946	204.735526637748	463.012124029379	775.932985819063	160.609293383170	374.874661306780	881.460629707872	154.166834018244	388.161749859128	940.878557487683	36.982682403662	344.194274448086	893.227077893108	1053.193275348066	298.356709214442	953.910584664761	799.612444600998	312.362705431982	981.313886567141	1110.800143361493	882.724932070066	1234.092608476227	1090.932251150984	880.927287697185	
58	26.100785714286	756.507773306813	988.026614725533	588.678768886455	923.945102645473	1413.559726834418	388.490422702239	1025.924870031877	1356.005976301795	554.316856309680	938.015900413993	1435.781182983675	723.436654367074	910.834015340551	1483.904626402163	544.094963626054	990.404473643390	936.482468609045	705.111670052684	970.946962945424	949.770790406179	430.491004088858	1033.006245996828	731.960761828975	668.044839648755	951.502563826397	617.721072272417	720.406907167363	1028.723617529763	568.594243877575	639.082064842701	1026.457186507152	473.453462433755	641.520372421137	1063.013537827533	772.260158296134	463.778715049665	1026.694651234408	644.749382202291	381.902587919746	1130.077023217410	585.857022150591	448.890759791703	1145.755764008450	496.541660053807	437.696687126460	1079.460171110172	430.380367882628	423.190886708832	937.311780576426	388.402330699301	377.521394401103	932.897036240568	254.056988475128	418.005223725554	980.028361436602	387.550366878328	644.113584374291	890.405239481651	295.601730666517	700.175245256231	915.654564415964	197.224215903652	634.898507178169	757.377945432728	46.040246199669	595.842119031858	927.186477387928	96.817319148803	645.252873935229	834.312044961222	38.259643309916	677.091872107482	1042.720761556672	40.427777611351	685.201950052773	750.608222398259	185.776974265424	463.082180552473	798.555041128717	147.547575531687	374.215871372414	903.694581793669	149.926004870469	387.556075891704	972.497334898206	39.521956975745	341.695783979939	877.913231998517	1054.655428409194	299.852780568519	922.792460263638	797.785200426195	314.520939540585	996.757067236105	1114.056653145762	881.508964569644	1249.751905146705	1111.135408474348	872.068909915573	
